<?xml version="1.0" encoding="utf-8"?>
<!-- Generator: Adobe Illustrator 24.1.1, SVG Export Plug-In . SVG Version: 6.00 Build 0)  -->
<svg version="1.1" id="Livello_1" xmlns="http://www.w3.org/2000/svg" xmlns:xlink="http://www.w3.org/1999/xlink" x="0px" y="0px"
	 viewBox="0 0 2467.9 1622" style="enable-background:new 0 0 2467.9 1622;" xml:space="preserve">
<style type="text/css">
	.st0{fill:#FFFFFF;}
	.st1{opacity:5.000000e-02;}
	.st2{opacity:0.5;fill:#7D5299;enable-background:new    ;}
	.st3{fill:#7D5299;}
	.st4{opacity:0.7;fill:#7D5299;enable-background:new    ;}
	.st5{opacity:0.21;fill:#A66DCC;enable-background:new    ;}
	.st6{opacity:0.4;}
	.st7{fill:#6CC198;}
	.st8{fill:none;stroke:#0A3542;stroke-width:18;stroke-linecap:round;stroke-miterlimit:10;}
	.st9{opacity:0.54;}
	.st10{fill:#F8985F;}
	.st11{fill:none;stroke:#0A3542;stroke-width:12;stroke-linecap:round;stroke-miterlimit:10;}
	.st12{fill:#FF877D;}
	.st13{opacity:0.2;fill:#FF877D;enable-background:new    ;}
	.st14{opacity:0.3;fill:#FF877D;enable-background:new    ;}
	.st15{fill:#33959F;}
	.st16{opacity:0.3;fill:#F8985F;enable-background:new    ;}
	.st17{fill:#0C1D25;}
	.st18{fill:#FFC937;}
	.st19{opacity:0.5;fill:#FFC937;enable-background:new    ;}
	.st20{fill:none;stroke:#BF9729;stroke-width:1.2889;stroke-miterlimit:10;}
	.st21{fill:#BF9729;}
	.st22{opacity:0.63;fill:#813EC1;enable-background:new    ;}
	.st23{opacity:0.49;fill:#FFC937;enable-background:new    ;}
	.st24{opacity:0.19;fill:#33959F;enable-background:new    ;}
	.st25{opacity:0.53;fill:#FFC937;enable-background:new    ;}
	.st26{opacity:0.18;fill:#33959F;enable-background:new    ;}
	.st27{opacity:0.34;fill:#6CC198;enable-background:new    ;}
	.st28{opacity:0.19;fill:#A66DCC;enable-background:new    ;}
	.st29{fill:#7CD16F;}
	.st30{font-family:'Poppins-SemiBoldItalic';}
	.st31{font-size:141.6133px;}
</style>
<g id="OBJECTS">
</g>
<g>
	<path id="SVGID_1_" class="st0" d="M126.7,0h2214.4c70,0,126.7,56.7,126.7,126.7v1368.5c0,70-56.7,126.7-126.7,126.7H126.7
		c-70,0-126.7-56.7-126.7-126.7V126.8C0,56.8,56.7,0,126.7,0z"/>
</g>
<g class="st1">
	<g>
		<path class="st2" d="M1022.5,414.4h153.8c1.3,0,2.3-1,2.3-2.3v-77c0-1.3-1-2.3-2.3-2.3h-153.8c-1.3,0-2.3,1-2.3,2.3v77
			C1020.1,413.4,1021.2,414.4,1022.5,414.4z"/>
		<path class="st3" d="M857.9,414.4h153.8c1.3,0,2.3-1,2.3-2.3v-77c0-1.3-1-2.3-2.3-2.3H857.9c-1.3,0-2.3,1-2.3,2.3v77
			C855.6,413.4,856.6,414.4,857.9,414.4z"/>
		<path class="st2" d="M693.3,414.4h153.8c1.3,0,2.3-1,2.3-2.3v-77c0-1.3-1-2.3-2.3-2.3H693.3c-1.3,0-2.3,1-2.3,2.3v77
			C691,413.4,692,414.4,693.3,414.4z"/>
		<path class="st3" d="M784.9,325.6h153.8c1.3,0,2.3-1,2.3-2.3v-77c0-1.3-1-2.3-2.3-2.3H784.9c-1.3,0-2.3,1-2.3,2.3v77
			C782.6,324.6,783.6,325.6,784.9,325.6z"/>
		<path class="st3" d="M1112.1,503.3h153.8c1.3,0,2.3-1,2.3-2.3v-77c0-1.3-1-2.3-2.3-2.3h-153.8c-1.3,0-2.3,1-2.3,2.3v77
			C1109.8,502.3,1110.8,503.3,1112.1,503.3z"/>
		<path class="st2" d="M949.4,503.3h153.8c1.3,0,2.3-1,2.3-2.3v-77c0-1.3-1-2.3-2.3-2.3H949.4c-1.3,0-2.3,1-2.3,2.3v77
			C947.1,502.3,948.2,503.3,949.4,503.3z"/>
		<path class="st2" d="M784.9,503.3h153.8c1.3,0,2.3-1,2.3-2.3v-77c0-1.3-1-2.3-2.3-2.3H784.9c-1.3,0-2.3,1-2.3,2.3v77
			C782.6,502.3,783.6,503.3,784.9,503.3z"/>
		<path class="st3" d="M620.3,503.3h153.8c1.3,0,2.3-1,2.3-2.3v-77c0-1.3-1-2.3-2.3-2.3H620.3c-1.3,0-2.3,1-2.3,2.3v77
			C618,502.3,619,503.3,620.3,503.3z"/>
		<path class="st3" d="M1107.3,681h153.8c1.3,0,2.3-1,2.3-2.3v-77c0-1.3-1-2.3-2.3-2.3h-153.8c-1.3,0-2.3,1-2.3,2.3v77
			C1105,680,1106,681,1107.3,681z"/>
		<path class="st4" d="M944.6,681h153.8c1.3,0,2.3-1,2.3-2.3v-77c0-1.3-1-2.3-2.3-2.3H944.6c-1.3,0-2.3,1-2.3,2.3v77
			C942.3,680,943.4,681,944.6,681z"/>
		<path class="st2" d="M780.1,681h153.8c1.3,0,2.3-1,2.3-2.3v-77c0-1.3-1-2.3-2.3-2.3H780.1c-1.3,0-2.3,1-2.3,2.3v77
			C777.8,680,778.8,681,780.1,681z"/>
		<path class="st2" d="M615.5,681h153.8c1.3,0,2.3-1,2.3-2.3v-77c0-1.3-1-2.3-2.3-2.3H615.5c-1.3,0-2.3,1-2.3,2.3v77
			C613.2,680,614.2,681,615.5,681z"/>
		<path class="st3" d="M1034.3,592.1h153.8c1.3,0,2.3-1,2.3-2.3v-77c0-1.3-1-2.3-2.3-2.3h-153.8c-1.3,0-2.3,1-2.3,2.3v77
			C1032,591,1033,592.1,1034.3,592.1z"/>
		<path class="st2" d="M871.6,592.1h153.8c1.3,0,2.3-1,2.3-2.3v-77c0-1.3-1-2.3-2.3-2.3H871.6c-1.3,0-2.3,1-2.3,2.3v77
			C869.3,591,870.4,592.1,871.6,592.1z"/>
		<path class="st3" d="M707.1,592.1h153.8c1.3,0,2.3-1,2.3-2.3v-77c0-1.3-1-2.3-2.3-2.3H707.1c-1.3,0-2.3,1-2.3,2.3v77
			C704.8,591,705.8,592.1,707.1,592.1z"/>
		<path class="st4" d="M542.5,592.1h153.8c1.3,0,2.3-1,2.3-2.3v-77c0-1.3-1-2.3-2.3-2.3H542.5c-1.3,0-2.3,1-2.3,2.3v77
			C540.2,591,541.2,592.1,542.5,592.1z"/>
		<path class="st3" d="M1034.3,769.8h153.8c1.3,0,2.3-1,2.3-2.3v-77c0-1.3-1-2.3-2.3-2.3h-153.8c-1.3,0-2.3,1-2.3,2.3v77
			C1032,768.8,1033,769.8,1034.3,769.8z"/>
		<path class="st2" d="M871.6,769.8h153.8c1.3,0,2.3-1,2.3-2.3v-77c0-1.3-1-2.3-2.3-2.3H871.6c-1.3,0-2.3,1-2.3,2.3v77
			C869.3,768.8,870.4,769.8,871.6,769.8z"/>
		<path class="st3" d="M707.1,769.8h153.8c1.3,0,2.3-1,2.3-2.3v-77c0-1.3-1-2.3-2.3-2.3H707.1c-1.3,0-2.3,1-2.3,2.3v77
			C704.8,768.8,705.8,769.8,707.1,769.8z"/>
		<path class="st2" d="M542.5,769.8h153.8c1.3,0,2.3-1,2.3-2.3v-77c0-1.3-1-2.3-2.3-2.3H542.5c-1.3,0-2.3,1-2.3,2.3v77
			C540.2,768.8,541.2,769.8,542.5,769.8z"/>
		<path class="st2" d="M1030.8,950.8h153.8c1.3,0,2.3-1,2.3-2.3v-77c0-1.3-1-2.3-2.3-2.3h-153.8c-1.3,0-2.3,1-2.3,2.3v77
			C1028.5,949.8,1029.6,950.8,1030.8,950.8z"/>
		<path class="st3" d="M866.3,950.8h153.8c1.3,0,2.3-1,2.3-2.3v-77c0-1.3-1-2.3-2.3-2.3H866.3c-1.3,0-2.3,1-2.3,2.3v77
			C864,949.8,865,950.8,866.3,950.8z"/>
		<path class="st2" d="M701.7,950.8h153.8c1.3,0,2.3-1,2.3-2.3v-77c0-1.3-1-2.3-2.3-2.3H701.7c-1.3,0-2.3,1-2.3,2.3v77
			C699.4,949.8,700.4,950.8,701.7,950.8z"/>
		<path class="st3" d="M1120.5,862h153.8c1.3,0,2.3-1,2.3-2.3v-77c0-1.3-1-2.3-2.3-2.3h-153.8c-1.3,0-2.3,1-2.3,2.3v77
			C1118.2,861,1119.2,862,1120.5,862z"/>
		<path class="st4" d="M957.8,862h153.8c1.3,0,2.3-1,2.3-2.3v-77c0-1.3-1-2.3-2.3-2.3H957.8c-1.3,0-2.3,1-2.3,2.3v77
			C955.5,861,956.6,862,957.8,862z"/>
		<path class="st3" d="M793.3,862h153.8c1.3,0,2.3-1,2.3-2.3v-77c0-1.3-1-2.3-2.3-2.3H793.3c-1.3,0-2.3,1-2.3,2.3v77
			C791,861,792,862,793.3,862z"/>
		<path class="st2" d="M628.7,862h153.8c1.3,0,2.3-1,2.3-2.3v-77c0-1.3-1-2.3-2.3-2.3H628.7c-1.3,0-2.3,1-2.3,2.3v77
			C626.4,861,627.4,862,628.7,862z"/>
		<path class="st4" d="M461.9,862h153.8c1.3,0,2.3-1,2.3-2.3v-77c0-1.3-1-2.3-2.3-2.3H461.9c-1.3,0-2.3,1-2.3,2.3v77
			C459.6,861,460.6,862,461.9,862z"/>
		<path class="st3" d="M401.9,1130.2h153.8c1.3,0,2.3-1,2.3-2.3v-77c0-1.3-1-2.3-2.3-2.3H401.9c-1.3,0-2.3,1-2.3,2.3v77
			C399.6,1129.2,400.6,1130.2,401.9,1130.2z"/>
		<path class="st2" d="M480.8,1220.9h153.8c1.3,0,2.3-1,2.3-2.3v-77c0-1.3-1-2.3-2.3-2.3H480.8c-1.3,0-2.3,1-2.3,2.3v77
			C478.5,1219.8,479.5,1220.9,480.8,1220.9z"/>
		<path class="st2" d="M461.9,1039.5h153.8c1.3,0,2.3-1,2.3-2.3v-77c0-1.3-1-2.3-2.3-2.3H461.9c-1.3,0-2.3,1-2.3,2.3v77
			C459.6,1038.5,460.6,1039.5,461.9,1039.5z"/>
		<path class="st4" d="M528.7,414.4h153.8c1.3,0,2.3-1,2.3-2.3v-77c0-1.3-1-2.3-2.3-2.3H528.7c-1.3,0-2.3,1-2.3,2.3v77
			C526.4,413.4,527.5,414.4,528.7,414.4z"/>
		<path class="st3" d="M364.2,414.4H518c1.3,0,2.3-1,2.3-2.3v-77c0-1.3-1-2.3-2.3-2.3H364.2c-1.3,0-2.3,1-2.3,2.3v77
			C361.9,413.4,362.9,414.4,364.2,414.4z"/>
		<path class="st4" d="M453.6,502.6h153.8c1.3,0,2.3-1,2.3-2.3v-77c0-1.3-1-2.3-2.3-2.3H453.6c-1.3,0-2.3,1-2.3,2.3v77
			C451.3,501.6,452.3,502.6,453.6,502.6z"/>
		<path class="st3" d="M289,580.5h153.8c1.3,0,2.3-1,2.3-2.3v-77c0-1.3-1-2.3-2.3-2.3H289c-1.3,0-2.3,1-2.3,2.3v77
			C286.7,579.5,287.7,580.5,289,580.5z"/>
		<path class="st4" d="M447,681h153.8c1.3,0,2.3-1,2.3-2.3v-77c0-1.3-1-2.3-2.3-2.3H447c-1.3,0-2.3,1-2.3,2.3v77
			C444.6,680,445.7,681,447,681z"/>
		<path class="st3" d="M1120.5,1039.8h153.8c1.3,0,2.3-1,2.3-2.3v-77c0-1.3-1-2.3-2.3-2.3h-153.8c-1.3,0-2.3,1-2.3,2.3v77
			C1118.2,1038.7,1119.2,1039.8,1120.5,1039.8z"/>
		<path class="st2" d="M957.8,1039.8h153.8c1.3,0,2.3-1,2.3-2.3v-77c0-1.3-1-2.3-2.3-2.3H957.8c-1.3,0-2.3,1-2.3,2.3v77
			C955.5,1038.7,956.6,1039.8,957.8,1039.8z"/>
		<path class="st2" d="M793.3,1039.8h153.8c1.3,0,2.3-1,2.3-2.3v-77c0-1.3-1-2.3-2.3-2.3H793.3c-1.3,0-2.3,1-2.3,2.3v77
			C791,1038.7,792,1039.8,793.3,1039.8z"/>
		<path class="st3" d="M628.7,1039.8h153.8c1.3,0,2.3-1,2.3-2.3v-77c0-1.3-1-2.3-2.3-2.3H628.7c-1.3,0-2.3,1-2.3,2.3v77
			C626.4,1038.7,627.4,1039.8,628.7,1039.8z"/>
		<path class="st2" d="M1302.5,1220.9h153.8c1.3,0,2.3-1,2.3-2.3v-77c0-1.3-1-2.3-2.3-2.3h-153.8c-1.3,0-2.3,1-2.3,2.3v77
			C1300.2,1219.8,1301.2,1220.9,1302.5,1220.9z"/>
		<path class="st2" d="M1229.5,1132h153.8c1.3,0,2.3-1,2.3-2.3v-77c0-1.3-1-2.3-2.3-2.3h-153.8c-1.3,0-2.3,1-2.3,2.3v77
			C1227.2,1131,1228.2,1132,1229.5,1132z"/>
		<path class="st3" d="M1137.2,1220.9H1291c1.3,0,2.3-1,2.3-2.3v-77c0-1.3-1-2.3-2.3-2.3h-153.8c-1.3,0-2.3,1-2.3,2.3v77
			C1134.9,1219.8,1135.9,1220.9,1137.2,1220.9z"/>
		<path class="st4" d="M974.5,1220.9h153.8c1.3,0,2.3-1,2.3-2.3v-77c0-1.3-1-2.3-2.3-2.3H974.5c-1.3,0-2.3,1-2.3,2.3v77
			C972.2,1219.8,973.3,1220.9,974.5,1220.9z"/>
		<path class="st2" d="M810,1220.9h153.8c1.3,0,2.3-1,2.3-2.3v-77c0-1.3-1-2.3-2.3-2.3H810c-1.3,0-2.3,1-2.3,2.3v77
			C807.7,1219.8,808.7,1220.9,810,1220.9z"/>
		<path class="st2" d="M645.4,1220.9h153.8c1.3,0,2.3-1,2.3-2.3v-77c0-1.3-1-2.3-2.3-2.3H645.4c-1.3,0-2.3,1-2.3,2.3v77
			C643.1,1219.8,644.1,1220.9,645.4,1220.9z"/>
		<path class="st3" d="M1064.2,1132H1218c1.3,0,2.3-1,2.3-2.3v-77c0-1.3-1-2.3-2.3-2.3h-153.8c-1.3,0-2.3,1-2.3,2.3v77
			C1061.9,1131,1062.9,1132,1064.2,1132z"/>
		<path class="st2" d="M901.5,1132h153.8c1.3,0,2.3-1,2.3-2.3v-77c0-1.3-1-2.3-2.3-2.3H901.5c-1.3,0-2.3,1-2.3,2.3v77
			C899.2,1131,900.3,1132,901.5,1132z"/>
		<path class="st3" d="M737,1132h153.8c1.3,0,2.3-1,2.3-2.3v-77c0-1.3-1-2.3-2.3-2.3H737c-1.3,0-2.3,1-2.3,2.3v77
			C734.7,1131,735.7,1132,737,1132z"/>
		<path class="st2" d="M572.4,1132h153.8c1.3,0,2.3-1,2.3-2.3v-77c0-1.3-1-2.3-2.3-2.3H572.4c-1.3,0-2.3,1-2.3,2.3v77
			C570.1,1131,571.1,1132,572.4,1132z"/>
		<path class="st2" d="M901.5,1309.7h153.8c1.3,0,2.3-1,2.3-2.3v-77c0-1.3-1-2.3-2.3-2.3H901.5c-1.3,0-2.3,1-2.3,2.3v77
			C899.2,1308.7,900.3,1309.7,901.5,1309.7z"/>
		<path class="st3" d="M737,1309.7h153.8c1.3,0,2.3-1,2.3-2.3v-77c0-1.3-1-2.3-2.3-2.3H737c-1.3,0-2.3,1-2.3,2.3v77
			C734.7,1308.7,735.7,1309.7,737,1309.7z"/>
		<path class="st4" d="M572.4,1309.7h153.8c1.3,0,2.3-1,2.3-2.3v-77c0-1.3-1-2.3-2.3-2.3H572.4c-1.3,0-2.3,1-2.3,2.3v77
			C570.1,1308.7,571.1,1309.7,572.4,1309.7z"/>
		<path class="st2" d="M480.8,1393.2h153.8c1.3,0,2.3-1,2.3-2.3v-77c0-1.3-1-2.3-2.3-2.3H480.8c-1.3,0-2.3,1-2.3,2.3v77
			C478.5,1392.1,479.5,1393.2,480.8,1393.2z"/>
		<path class="st4" d="M974.5,1393.2h153.8c1.3,0,2.3-1,2.3-2.3v-77c0-1.3-1-2.3-2.3-2.3H974.5c-1.3,0-2.3,1-2.3,2.3v77
			C972.2,1392.1,973.3,1393.2,974.5,1393.2z"/>
		<path class="st2" d="M810,1393.2h153.8c1.3,0,2.3-1,2.3-2.3v-77c0-1.3-1-2.3-2.3-2.3H810c-1.3,0-2.3,1-2.3,2.3v77
			C807.7,1392.1,808.7,1393.2,810,1393.2z"/>
		<path class="st2" d="M645.4,1393.2h153.8c1.3,0,2.3-1,2.3-2.3v-77c0-1.3-1-2.3-2.3-2.3H645.4c-1.3,0-2.3,1-2.3,2.3v77
			C643.1,1392.1,644.1,1393.2,645.4,1393.2z"/>
		<path class="st2" d="M901.5,1482h153.8c1.3,0,2.3-1,2.3-2.3v-77c0-1.3-1-2.3-2.3-2.3H901.5c-1.3,0-2.3,1-2.3,2.3v77
			C899.2,1480.9,900.3,1482,901.5,1482z"/>
		<path class="st3" d="M737,1482h153.8c1.3,0,2.3-1,2.3-2.3v-77c0-1.3-1-2.3-2.3-2.3H737c-1.3,0-2.3,1-2.3,2.3v77
			C734.7,1480.9,735.7,1482,737,1482z"/>
		<path class="st4" d="M572.4,1482h153.8c1.3,0,2.3-1,2.3-2.3v-77c0-1.3-1-2.3-2.3-2.3H572.4c-1.3,0-2.3,1-2.3,2.3v77
			C570.1,1480.9,571.1,1482,572.4,1482z"/>
	</g>
</g>
<ellipse class="st5" cx="787.8" cy="1456.3" rx="416.3" ry="22.8"/>
<g class="st6">
	<path class="st7" d="M741.9,687.5c39.2-37.8,58.6-111.4,98.6-147.8c12.1-11,12.3-49.2,35.7-41.4c-2.9,4.8-5.7,9.7-8.6,14.5
		c19.2-4,17.2-29,29.3-40c7.1,7,10.6,10.5,17,9.2c-5.7,9.7-17.8,20.7-20,33.9l10.6,10.5c9.3-6.2,10.8-27.7,20-33.9
		c3.5,3.5,10.6,10.5,14.1,14s6.4-1.3,9.3-6.2c-2.9,4.8-8.6,14.5-11.5,19.3c3.5,3.5,10.6,10.5,14.1,14s6.4-1.3,9.3-6.2
		c7.1,7,17,9.2,17.7,17.5c-2.9,4.8-5.7,9.7-8.6,14.5c15-15.8,38.4-8,49,2.6c-6.4,1.3,4.2,11.9-2.2,13.2c19.2-4,41.9-4.5,34,18.4
		c-89.6,180-206.7,340.1-314,502.4c-9.3,6.2-13.5-5.7-20.5-12.7c11.4-19.3,26.4-35.2,27.9-56.7c2.9-4.8-17-9.2-21.2-21.1
		c2.9-4.8,8.6-14.5,11.5-19.3c-7.7-15.3-24-16.2-31.8-31.6c-7.7-15.4,10.8-27.7,6.6-39.5c1.5-21.5-16.3-0.8-24.9,13.7
		c-4.2-11.8-5.7,9.7-12.8,2.7c-14.1-14-28.3-28.1-27.4-57.9c-0.7-8.3-14.1-14-21.2-21C656.2,794.3,693.4,731.3,741.9,687.5z"/>
	<path class="st7" d="M390.3,1006.8c46.5-76.1,98.2-150.3,150.6-223.6c3.8-6.8,8-13.6,7.9-17.4c6.3-18.2-11.5,7.2-21.2,23.2
		c-0.2-7.6-6.5,10.6-9.8,8.4c-3.6-2.4-7.1-4.8-8.5-10.2c-0.9,0.3-1.8,0.5-2.7,0.5c0.7-1.1,1.5-2.2,2.2-3.3c-0.1-1-0.1-2.1-0.1-3.3
		c-7.7,7.3-10.3,18.3-17.5,26c-3.3-2.4-4.9-3.7-8.9-1.4c4.6-6.8,13.1-15.9,16.1-24l-4.9-3.6c-6.2,5.6-9.8,18.3-16.1,24
		c-1.6-1.2-4.9-3.7-6.6-4.9c-1.6-1.2-3.9,2.2-6.2,5.6c2.3-3.4,6.9-10.3,9.2-13.7c-1.6-1.2-4.9-3.7-6.5-4.9s-3.9,2.2-6.2,5.6
		c-3.3-2.4-8.9-1.4-8.2-6.1c2.3-3.4,4.6-6.8,6.9-10.3c-10.8,12.5-23.6,13.3-28.5,9.6c3.9-2.2-1-5.9,3-8.1
		c-11.8,6.6-25.2,12-17.7-2.9c75.2-123.4,164.4-241.8,248-359.2c6.2-5.6,7.2,0.2,10.5,2.7c-9.2,13.7-20,26.2-23.6,38.9
		c-2.3,3.4,8.8,1.5,9.8,7.3c-2.3,3.4-6.9,10.3-9.2,13.7c2.6,7.1,12.1,3.9,14.7,10.9c2.6,7.1-9.8,18.3-8.8,24.2
		c-1.9,6.7,0.9,5.4,4.9,1.2c23.6-39.3,46.3-81.6,71.6-114.6c11.4-14.8,20.7-45.9,35.6-50.9c-3.2,5.3-6.5,10.6-9.7,15.9
		c14.7-12.5,19.3-31.9,30.7-46.7c3.4,2.3,5.1,3.4,10-0.8c-6.5,10.6-17.8,25.4-22.6,37.2l5.1,3.4c8.2-9.5,14.4-27.7,22.6-37.2
		c1.7,1.1,5.1,3.4,6.8,4.5s4.9-4.2,8.1-9.5c-3.2,5.3-9.7,15.9-12.9,21.3c1.7,1.1,5.1,3.4,6.8,4.5s4.9-4.2,8.1-9.5
		c3.4,2.3,10-0.8,8.5,5.7c-3.2,5.3-6.5,10.6-9.7,15.9c8.6-11.8,17.3-18.4,24-21.1c9.3-15.9,18.8-31.3,29.6-43.9
		c8.1-9.5,12.1-31.7,24.8-33c-2.1,3.5-4.3,7.1-6.4,10.6c11.5-7.2,12.8-21.2,21-30.6c3.4,2.3,5.1,3.4,8.9,1
		c-4.3,7.1-12.4,16.5-15,24.7l5.1,3.4c6-5.9,9-18.8,15-24.7c1.7,1.1,5.1,3.4,6.8,4.5s3.8-2.4,6-5.9c-2.1,3.5-6.4,10.6-8.6,14.1
		c1.7,1.1,5.1,3.4,6.8,4.5s3.8-2.4,6-5.9c3.4,2.3,8.9,1,8.5,5.7c-2.2,3.5-4.3,7.1-6.4,10.6c10.3-13,23-14.4,28.1-11
		c-3.8,2.4,1.2,5.8-2.6,8.2c11.5-7.2,24.7-13.2,17.8,2c-70,127-153.9,249.6-232.2,371c-6,5.9-7.2,0.1-10.6-2.2
		c8.6-14.1,18.8-27.1,21.9-40c2.1-3.5-8.9-1-10.1-6.8c2.1-3.5,6.4-10.6,8.6-14.1c-2.9-6.9-12.3-3.3-15.2-10.2s9-18.8,7.8-24.6
		c3.1-12.9-9.3,3.7-15.8,14.3c0-0.1,0-0.1,0-0.2c-34.8,56.2-70.2,112.1-105.7,167.8c0.4,0.5,0.8,1.1,1.1,1.9
		c2.6,7.1-9.8,18.3-8.8,24.2c-3.6,12.7,9.5-3.2,16.4-13.5c1,5.8,4.6-6.8,7.9-4.4c6.5,4.9,13.1,9.7,8.8,27.1
		c-0.7,4.6,6.5,4.9,9.8,7.3c-27.5,41.1-57.4,85.6-91.5,121.8c-27.9,30.6-48.6,77.3-76.7,107.2c-8.5,9.1-13.4,31-26.2,31.8
		c2.3-3.4,4.6-6.8,6.9-10.3c-11.8,6.6-13.8,20.5-22.3,29.6c-3.3-2.4-4.9-3.7-8.9-1.4c4.6-6.8,13.1-15.9,16.1-24l-4.9-3.6
		c-6.2,5.6-9.8,18.3-16.1,24c-1.6-1.2-4.9-3.7-6.6-4.9c-1.6-1.2-3.9,2.2-6.2,5.6c2.3-3.4,6.9-10.3,9.2-13.7
		c-1.6-1.2-4.9-3.7-6.5-4.9s-3.9,2.2-6.2,5.6c-3.3-2.4-8.9-1.4-8.2-6.1c2.3-3.4,4.6-6.8,6.9-10.3c-10.8,12.5-23.6,13.3-28.5,9.6
		c3.9-2.2-1-5.9,3-8.1C396.2,1016.3,382.7,1021.8,390.3,1006.8z"/>
</g>
<g>
	<g>
		<line class="st8" x1="668" y1="764.1" x2="925.5" y2="1453.8"/>
		<line class="st8" x1="897.5" y1="764.1" x2="1154.9" y2="1453.8"/>
		<line class="st8" x1="712.7" y1="883.8" x2="948.1" y2="883.8"/>
		<line class="st8" x1="755.7" y1="999" x2="991.2" y2="999"/>
		<line class="st8" x1="799.5" y1="1109" x2="1035" y2="1109"/>
		<line class="st8" x1="832.7" y1="1210.9" x2="1068.2" y2="1210.9"/>
		<line class="st8" x1="870.5" y1="1312.8" x2="1105.9" y2="1312.8"/>
	</g>
	<g class="st9">
		<line class="st8" x1="668" y1="764.1" x2="925.5" y2="1453.8"/>
		<line class="st8" x1="897.5" y1="764.1" x2="1154.9" y2="1453.8"/>
		<line class="st8" x1="712.7" y1="883.8" x2="948.1" y2="883.8"/>
		<line class="st8" x1="755.7" y1="999" x2="991.2" y2="999"/>
		<line class="st8" x1="799.5" y1="1109" x2="1035" y2="1109"/>
		<line class="st8" x1="832.7" y1="1210.9" x2="1068.2" y2="1210.9"/>
		<line class="st8" x1="870.5" y1="1312.8" x2="1105.9" y2="1312.8"/>
	</g>
</g>
<path class="st10" d="M692.8,513c-36.8,7.3-57.8-36.7-57.8-36.7l-14.6,19.9l4.1,14c6.7,7.8,13.4,12.2,22.4,15
	c10.9,10.8,6.9,30.3,6.9,30.3s25.4-3.7,36.5-7.3l2.3-8.3c-5-3.6-9.1-7.5-9-17.9C687.1,519.6,690.2,516.6,692.8,513z"/>
<g>
	<line class="st11" x1="894.5" y1="764.1" x2="637" y2="1453.8"/>
	<line class="st11" x1="665.1" y1="764.1" x2="407.6" y2="1453.8"/>
	<line class="st11" x1="670.4" y1="764.1" x2="412.9" y2="1453.8"/>
	<line class="st11" x1="849.9" y1="883.8" x2="614.4" y2="883.8"/>
	<line class="st11" x1="806.8" y1="999" x2="571.4" y2="999"/>
	<line class="st11" x1="763" y1="1109" x2="527.5" y2="1109"/>
	<line class="st11" x1="729.8" y1="1210.9" x2="494.4" y2="1210.9"/>
	<line class="st11" x1="692.1" y1="1312.8" x2="456.6" y2="1312.8"/>
	<line class="st11" x1="687.5" y1="1317.7" x2="452" y2="1317.7"/>
	<line class="st11" x1="723.9" y1="1215.8" x2="488.4" y2="1215.8"/>
	<line class="st11" x1="760.2" y1="1115.6" x2="524.7" y2="1115.6"/>
	<line class="st11" x1="802.8" y1="1003.8" x2="567.3" y2="1003.8"/>
	<line class="st11" x1="847.6" y1="891.3" x2="612.1" y2="891.3"/>
</g>
<path class="st12" d="M712.2,754.1l-22.3,126.3c0,0-34.6,171.9-34.6,184.9s37.7,29.7,36.2,37s-61.5-4.1-67.7-7.3
	c-6.2-3.2,5.6-23.4,5.6-33.1s-14.1-91.6-11-125.6c2.3-25.2,11.3-50.3,15.8-61.7c1.7-4.3,2.3-8.9,1.8-13.5
	c-3-28.3-12.5-131.6,4.7-163.6C660.6,660.3,712.2,754.1,712.2,754.1z"/>
<path class="st13" d="M712.2,754.1l-22.3,126.3c0,0-34.6,171.9-34.6,184.9s37.7,29.7,36.2,37s-61.5-4.1-67.7-7.3
	c-6.2-3.2,5.6-23.4,5.6-33.1s-14.1-91.6-11-125.6c2.3-25.2,11.3-50.3,15.8-61.7c1.7-4.3,2.3-8.9,1.8-13.5
	c-3-28.3-12.5-131.6,4.7-163.6C660.6,660.3,712.2,754.1,712.2,754.1z"/>
<path class="st14" d="M655.5,1062.7c1.6-21.2,17.1-158.1,19.6-175.5c2.7-18.8-10-136.7-10-136.7l10.8-13.3H702
	c6.2,9.7,10.2,17,10.2,17l-22.3,126.3C689.9,880.5,658.3,1037.4,655.5,1062.7z"/>
<path class="st12" d="M670.2,682c71.3-4.1,125.4,48.7,144,71.3c11.1,13.5,12.1,23.7,11.8,33.6h0.1c0,0,3.3,14.6-30.7,82.6
	c0,0-45.6,85.6-41.5,98.4c0,0,0.6,12.2,19.6,17c19,4.9,20.8,14,15.6,14s-63.5,0.6-66.4-4.3c-2.9-4.9,5.4-21.3,5.4-30.4
	c0-29,0.7-58.3,5.2-87c1.1-7.3,10-54.2,20-71c2.1-3.5,0.6-8.2-3.1-9.7c-28.6-11.7-79.6-40.7-93.3-53.2
	C641.1,729,632.4,717,632.4,717L670.2,682z"/>
<path class="st15" d="M661.4,567.3l-5.6-19.1c0,0-11.2,2.2-23.4,23.1c-12.2,20.9-46.6,123.8-87.8,153c0,0-10.2,11.7-18.6,16.8
	c-3.3,2.1-5.3,6.1-5.6,10.2c-0.6,7.6,27.3-10.3,35.3-14.8c0,0,58.6-25.8,83.1-64.1C663.4,634.3,661.4,567.3,661.4,567.3z"/>
<path class="st10" d="M639.4,446.5c0,0,12.6-2.8,23.5,4.6c10.9,7.3,17,17.8,21.8,19.8c4.9,2,7.5,2.1,7.5,2.1s1.7,3.6-1.5,8.2
	c0,0,10.7,15.4,4.5,27.6c-7.6,14.9-23.7,21.1-39.3,18.4c-15.7-2.7-24.7-8-34.7-21.1C611.1,492.9,609.1,452.3,639.4,446.5z"/>
<path class="st16" d="M692.8,513c-36.8,7.3-57.8-36.7-57.8-36.7l-14.6,19.9l4.1,14c6.7,7.8,13.4,12.2,22.4,15
	c10.9,10.8,6.9,30.3,6.9,30.3s25.4-3.7,36.5-7.3l2.3-8.3c-5-3.6-9.1-7.5-9-17.9C687.1,519.6,690.2,516.6,692.8,513z"/>
<path class="st17" d="M633.5,459.8c0,0,23.4-15.5,48.8-19.7c0,0,0.3,4.2-12,9.7c-6.1,2.7,13.2-1.9,13.2-1.9s-2.8,16.9-38.3,30.4
	C609.7,491.6,633.5,459.8,633.5,459.8z"/>
<path class="st17" d="M620.1,465.5c0,0,28.2-6.7,15.8,30.9c-4.5,13.7,23.7,24.6,19.9,40.1c-2,8.1-5.6,11.3-5.6,11.3s0.8-5.4-12-13.2
	s-26.2-18.2-28.5-37.5C607.3,477.8,620.1,465.5,620.1,465.5z"/>
<path class="st17" d="M637.8,525.3c2.8,4.9,4.5,9.2,5.5,12.8c-1.4-1.1-3-2.3-5-3.5c-12.8-7.8-26.2-18.2-28.5-37.5c0-0.2,0-0.4,0-0.5
	l50.2-41C659.8,455.6,619,491.9,637.8,525.3z"/>
<g>
	<path class="st18" d="M679.3,429.8c0,0-43.5,60-72.3,86.9c-1,0.9-2.5-0.2-2-1.5l1.4-3.6c0.7-1.9,0.5-4.1-0.7-5.8
		c-6-8.4-22.2-36.4,3.9-62.4c9.1-9,24.2-17.3,44.6-6.9c4.1,2.1,8.9,1,12.1-2.4c5.6-6,13.6-14.1,15.5-13.2
		C684.8,422.5,679.3,429.8,679.3,429.8z"/>
	<path class="st19" d="M637.5,473.8c-18.6,11.7-32.8,1-40.9-8.9c-4.9,18.4,4.8,34.9,9.1,41c1.2,1.7,1.5,3.8,0.7,5.8l-1.4,3.6
		c-0.5,1.3,1,2.4,2,1.5c14.7-13.8,33.3-36.3,48-54.9C650.9,464.9,645.2,468.8,637.5,473.8z"/>
</g>
<path class="st10" d="M641.4,493.8c0,0-12.3-2-12.1,6s9.5,14.6,14.8,11.5L641.4,493.8z"/>
<path class="st20" d="M563.4,833.8l16.3-22.8c0,0-2.2-62.2-51.2-59.6c0,0-37.4,0.9-37.4,65.3S563.4,833.8,563.4,833.8z"/>
<path class="st15" d="M661.4,567.3l-5.6-19.1c0,0-11.2,2.2-23.4,23.1c-12.2,20.9-46.6,123.8-87.8,153c0,0-10.2,11.7-18.6,16.8
	c-2.5,1.6,26.4,1.3,28.4-6.3c0,0,59.9-24.1,84.4-62.3C663.4,634.3,661.4,567.3,661.4,567.3z"/>
<path class="st10" d="M526.1,741.1c8.4-5.2,18.6-16.8,18.6-16.8c9.5-6.8,18.7-17.5,27.3-30.2c7.7,4.3,17,11.2,21.4,21.3
	c-20,13.3-41.1,23.5-41.1,23.5c-6.2,12.8-9.7,9.7-9.7,9.7c-3.9-1.1-6.7,1.8-8.7,5.3c-4.1,7.3-15,2.6-12.8-5.6
	C521.8,745.5,523.5,742.8,526.1,741.1z"/>
<path class="st17" d="M753.7,968c2.9,6.7,13.8,15.5,19.6,17c19,4.9,20.8,14,15.6,14s-63.5,0.6-66.4-4.3c-1.9-3.2,2.8-18.8,5.1-26.7
	C741.7,971.8,747.1,972.8,753.7,968z"/>
<path class="st17" d="M628.4,1067.8c24,7.1,26.8-2.4,26.8-2.4c0,13,37.7,29.7,36.2,37s-61.5-4.1-67.7-7.3
	C618.6,1092.4,625.8,1078.1,628.4,1067.8z"/>
<path class="st15" d="M621.9,1073.7"/>
<path class="st18" d="M581.5,811.3v111.2c0,3.3-20.6,8.1-46.1,8.1c-25.4,0-46.1-4.8-46.1-8.1V811.3H581.5z"/>
<path class="st21" d="M489.4,811.3c0,3.3,20.6,6,46.1,6c25.4,0,46.1-2.7,46.1-6s-20.6-6-46.1-6C510,805.5,489.4,808,489.4,811.3z"/>
<path class="st22" d="M571.4,814.1c-6.9,1.9-21.6,3.2-38.8,3.2s-31.9-1.3-38.8-3.2c6.9-1.9,21.6-3.2,38.8-3.2
	C549.8,811,564.5,812.3,571.4,814.1z"/>
<path class="st17" d="M635.2,1069.4c-0.8,5-0.6,13.8,8.3,21.4c9.7,8.4,33.5,12,45.5,13.3c-11.6,3.2-59.7-6.2-65.2-9
	c-5.1-2.7,2.1-17,4.7-27.3C630.9,1068.5,633.2,1069,635.2,1069.4z"/>
<g>
	<path class="st17" d="M804.1,538.6c4.3,0,7.9-3.5,8.1-8.1l9.1-205.8c0.2-4.7-3.2-8.7-7.7-8.9c-4.4-0.2-8.2,3.4-8.4,8.1L796,529.8
		c-0.2,4.7,3.2,8.7,7.7,8.9C803.8,538.6,803.9,538.6,804.1,538.6z"/>
	<path class="st17" d="M805.1,323.9c0.2-3.7,2.6-6.7,5.8-7.7c-0.1,0.5-0.2,1-0.2,1.4l-9.1,205.8c-0.2,4.7,3.2,8.7,7.7,8.9
		c0.1,0,0.3,0,0.4,0c0.8,0,1.6-0.2,2.3-0.4c-0.8,3.8-4,6.7-7.9,6.7c-0.1,0-0.3,0-0.4,0c-4.5-0.2-7.9-4.2-7.7-8.9L805.1,323.9z"/>
</g>
<path class="st17" d="M722.6,994.6c-1.9-3.2,2.8-18.8,5.1-26.7c0.3,0.1,0.5,0.2,0.8,0.2c1.2,7.3,5.4,22.4,19.6,24.2
	c18.8,2.3,40.8,6.6,40.8,6.6C783.7,999,725.5,999.5,722.6,994.6z"/>
<path class="st15" d="M800.9,405.5c0,0-16.3,51.7-41.4,78.1S701.8,542,655.8,548c0,0-8.4,3.5-8.4,15s-14.2,108.2-15,154
	c0,0,46,25.5,112-19.4l-10-107.3c0,0,69.9-39.3,84.7-165.9c0.7-5.9,1-12,0.2-17.9c-0.3-2,0.1-4.5,2.8-6.9c9-8,12-15.7,6.5-26.6
	c-1.8-3.6-6.8-3.4-8.5,0.4c-2.3,4.9-6.3,10.2-13.5,11.6C792.3,387.8,797.4,392,800.9,405.5z"/>
<path class="st23" d="M581.5,909.3v13.3c0,3.3-20.6,8.1-46.1,8.1c-25.4,0-46.1-4.8-46.1-8.1V822C496.8,871,523.3,907.6,581.5,909.3z
	"/>
<path class="st24" d="M734.4,590.3l10,107.3c0,0-56,44.2-112,19.4C632.4,717,725.5,694.1,734.4,590.3z"/>
<path class="st10" d="M800.9,405.5c-3.6-13.6-8.6-17.8,5.6-20.4c7.2-1.3,11.3-6.6,13.5-11.6c1.7-3.7,6.7-4,8.5-0.4
	c5.5,10.9,2.5,18.6-6.5,26.6c-2.6,2.4-3,4.9-2.8,6.9c0.8,5.9,0.5,11.9-0.2,17.9c-1.2,9.9-2.7,19.3-4.5,28.1
	c-13.5-3.3-22.3-8.5-27.5-12.5C795.9,421.4,800.9,405.5,800.9,405.5z"/>
<path class="st16" d="M641.4,493.8c0,0-12.3-2-12.1,6s9.5,14.6,14.8,11.5L641.4,493.8z"/>
<g>
	<path class="st18" d="M766,321.9l93.1,4.5c3,0.1,5.5-2.3,5.6-5.4l1-25.2c0.1-3.1-2.2-5.7-5.1-5.9l-11.7-0.6l-81.4-4
		c-3-0.1-5.5,2.3-5.6,5.4l-1,25.2C760.8,319.1,763,321.8,766,321.9z"/>
	<path class="st25" d="M760.9,316l0.6-14.4c8.1,4.1,23.7,9.5,51.8,10.7c33.4,1.5,46.9-3.2,52-6.1l-0.6,14.9
		c-0.1,3.1-2.6,5.5-5.6,5.4L766,322C763,321.8,760.8,319.1,760.9,316z"/>
</g>
<path class="st7" d="M867.6,303.1l0.2-6.7c0.1-4.5-3.2-8.2-7.5-8.4l-90.3-3.3c-6.2,0-7.8,3.1-8.3,7.5l-0.6,5.5
	c-0.3,2.6,1.9,4.9,4.3,4.3c1.1-0.3,2-1.1,2.2-3c0.6-5.4,6.2-5.8,5.8,2.2c-0.8,14.6,4,19.3,8.5,14.6c4.6-4.7,5.2-21.6,6.9-17.2
	c1.8,4.4,0.5,13.2,8.3,12.5c4.4-0.4,4.8-16.6,5.4-11.6s1.6,9,5,8.3c3.4-0.6,2.7-4.3,5.3-3.3c4.3,1.6,3.8,14.8,10.8,14.8
	c10.8,0,5.4-19.4,9.9-16.9c4.6,2.5,6.9,8,12.5,6.5c5.8-1.6,6-16.8,12.2-11.3C861.8,300.8,865.5,313.3,867.6,303.1z"/>
<path class="st26" d="M800.9,405.5c0,0-31,131.2-108.3,134.2V537c27.5-13.1,49.1-34.6,67-53.4C784.6,457.3,800.9,405.5,800.9,405.5z
	"/>
<path class="st7" d="M573.7,813c4-0.7,7.7,2.7,7.4,7c-0.7,10.6-2.5,22-6.3,18.2c-5.7-5.4-5.3-22.5-10.7-16
	c-4.9,5.9-11.8,26.1-14.6,9.3s-9.2-14.4-11-9.5c-2.3,6.5,1.4,26.8-5.8,26.8c-8.7,0-5.2-25.3-12.1-26.8c-6.2-1.4-3.5,7.5-8.9,15.2
	c-6.4,9.3-7.9-15.2-11.6-15.2c-8.1,0-7.9,12.9-10.7,6.8c-1.5-3.4-1.4-8.4-1-12.1c0.3-2.8,2.8-4.8,5.5-4.3
	C505.8,814.5,539.5,819.3,573.7,813z"/>
<path class="st14" d="M750.1,796.5c0,0,19.4,5.8,13,12.4C739.8,833,729,897,728.5,930.6c0,0,1.8-61.3,14.9-98.6
	c0,0,4.8-17.7,9.7-25.8C753.1,806.3,756.4,799.3,750.1,796.5z"/>
<path class="st27" d="M2467.9,1090.7v339.4c-48.4,60.2-122,98.6-204.5,98.6c-145.8,0-264-120.1-264-268.3s118.2-268.3,264-268.3
	C2345.8,992,2419.4,1030.5,2467.9,1090.7z"/>
<path class="st28" d="M2078.2,211.9c0,223.4-172.1,404.4-384.3,404.4s-384.3-181.1-384.3-404.5c0-77.6,20.8-150.2,56.8-211.8h654.9
	C2057.4,61.6,2078.2,134.1,2078.2,211.9z"/>
<path class="st27" d="M190,672c0,110.4-85.1,200-190,200V472C104.9,471.9,190,561.5,190,672z"/>
<path class="st28" d="M512.6,1622.1H67.7c43.6-83,126.9-139.2,222.5-139.2S468.9,1539.1,512.6,1622.1z"/>
<text transform="matrix(1 0 0 1 1340.3976 755.449)" class="st29 st30 st31">AREA UNDER</text>
<text transform="matrix(1 0 0 1 1286.631 925.3484)" class="st29 st30 st31">CONSTRUCTION</text>
</svg>
